<?xml version="1.0" encoding="UTF-8"?>
<svg width="54px" height="32px" viewBox="0 0 54 32" version="1.1" xmlns="http://www.w3.org/2000/svg" xmlns:xlink="http://www.w3.org/1999/xlink">
    <!-- Generator: Sketch 48.2 (47327) - http://www.bohemiancoding.com/sketch -->
    <title>send</title>
    <desc>Created with Sketch.</desc>
    <defs>
        <filter x="-1.0%" y="-6.2%" width="102.0%" height="115.6%" filterUnits="objectBoundingBox" id="filter-1">
            <feOffset dx="0" dy="1" in="SourceAlpha" result="shadowOffsetOuter1"></feOffset>
            <feGaussianBlur stdDeviation="1.5" in="shadowOffsetOuter1" result="shadowBlurOuter1"></feGaussianBlur>
            <feColorMatrix values="0 0 0 0 0.864769345   0 0 0 0 0.864769345   0 0 0 0 0.864769345  0 0 0 1 0" type="matrix" in="shadowBlurOuter1" result="shadowMatrixOuter1"></feColorMatrix>
            <feMerge>
                <feMergeNode in="shadowMatrixOuter1"></feMergeNode>
                <feMergeNode in="SourceGraphic"></feMergeNode>
            </feMerge>
        </filter>
    </defs>
    <g id="accueil" stroke="none" stroke-width="1" fill="none" fill-rule="evenodd" transform="translate(-889.000000, -3585.000000)">
        <g id="footer" transform="translate(0.000000, 3260.000000)" fill="#FFFFFF" fill-rule="nonzero">
            <g id="footer-content">
                <g id="Group-9" transform="translate(474.000000, 171.000000)">
                    <g id="input-subscribe" filter="url(#filter-1)" transform="translate(0.000000, 137.000000)">
                        <g id="Group-8">
                            <g id="enter-your-mail…-+-Rectangle-7-Mask">
                                <g id="send" transform="translate(418.000000, 19.000000)">
                                    <path d="M47.1691056,0 L13.8308944,0 C13.372016,0 13,0.375048077 13,0.837666562 L13,25.1623334 C13,25.6249519 13.372016,26 13.8308944,26 L39.8491144,26 C40.3079928,26 40.6800088,25.6249519 40.6800088,25.1623334 C40.6800088,24.699715 40.3079928,24.3246669 39.8491144,24.3246669 L16.0054218,24.3246669 L27.3109805,14.123976 L29.9458696,16.5013677 C30.1036496,16.6437047 30.3017553,16.7148264 30.4999536,16.7148264 C30.698152,16.7148264 30.8963504,16.6437047 31.0540377,16.5013677 L33.688556,14.1243498 L44.9938366,24.3246669 L42.6188859,24.3246669 C42.1600075,24.3246669 41.7879916,24.699715 41.7879916,25.1623334 C41.7879916,25.6249519 42.1600075,26 42.6188859,26 L47.1691056,26 C47.627984,26 48,25.6249519 48,25.1623334 L48,0.837666562 C48,0.375048077 47.627984,0 47.1691056,0 Z M30.4999536,14.7530437 L22.5026765,7.53769065 C22.1607889,7.22918486 21.6354426,7.25843731 21.329431,7.60329836 C21.0234194,7.94806595 21.0524353,8.47760057 21.3945083,8.78619981 L26.0649634,12.9999533 L14.6617887,23.2886818 L14.6617887,2.71169199 L19.2768076,6.87553873 C19.4353293,7.01862336 19.6333423,7.08899744 19.8306136,7.08899744 C20.058755,7.08899744 20.2859693,6.99488496 20.4500531,6.81002448 C20.7560647,6.46525688 20.7270488,5.93572227 20.3849758,5.62721649 L16.0052364,1.67570696 L44.9945782,1.67570696 L30.4999536,14.7530437 Z M46.3382113,23.2892426 L34.9346658,13.0001402 L46.3382113,2.71150507 L46.3382113,23.2892426 Z" id="Shape"></path>
                                    <path d="M9.18366046,3 L2.81633954,3 C2.36549934,3 2,3.44772955 2,4 C2,4.55227045 2.36549934,5 2.81633954,5 L9.18366046,5 C9.63450066,5 10,4.55227045 10,4 C10,3.44772955 9.63450066,3 9.18366046,3 Z" id="Shape"></path>
                                    <path d="M10.1240655,15 L3.87593452,15 C3.39218177,15 3,15.4477296 3,16 C3,16.5522704 3.39218177,17 3.87593452,17 L10.1240655,17 C10.6078182,17 11,16.5522704 11,16 C11.0000977,15.4477296 10.6078182,15 10.1240655,15 Z" id="Shape"></path>
                                    <path d="M8.1401115,10 L0.859888499,10 C0.384997495,10 0,10.4477296 0,11 C0,11.5522704 0.384997495,12 0.859888499,12 L8.1401115,12 C8.61500251,12 9,11.5522704 9,11 C9,10.4477296 8.61500251,10 8.1401115,10 Z" id="Shape"></path>
                                    <path d="M7.29081773,21 L6.70918226,21 C6.31752186,21 6,21.4477296 6,22 C6,22.5522704 6.31752186,23 6.70918226,23 L7.29081773,23 C7.68247813,23 7.99999999,22.5522704 7.99999999,22 C8.00007911,21.4477296 7.68247813,21 7.29081773,21 Z" id="Shape"></path>
                                    <path d="M4.20797766,21 L0.792022339,21 C0.354611809,21 0,21.4477296 0,22 C0,22.5522704 0.354611809,23 0.792022339,23 L4.20797766,23 C4.64538819,23 5,22.5522704 5,22 C5,21.4477296 4.64538819,21 4.20797766,21 Z" id="Shape"></path>
                                </g>
                            </g>
                        </g>
                    </g>
                </g>
            </g>
        </g>
    </g>
</svg>