<?xml version="1.0" encoding="UTF-8"?>
<svg width="20px" height="20px" viewBox="0 0 20 20" version="1.1" xmlns="http://www.w3.org/2000/svg" xmlns:xlink="http://www.w3.org/1999/xlink">
    <!-- Generator: Sketch 48.2 (47327) - http://www.bohemiancoding.com/sketch -->
    <title>play-button</title>
    <desc>Created with Sketch.</desc>
    <defs></defs>
    <g id="accueil" stroke="none" stroke-width="1" fill="none" fill-rule="evenodd" transform="translate(-371.000000, -1438.000000)">
        <g id="about" transform="translate(0.000000, 815.000000)" fill="#000000" fill-rule="nonzero">
            <g id="texte-about" transform="translate(123.000000, 230.000000)">
                <g id="vidéo-about" transform="translate(248.000000, 391.000000)">
                    <g id="Group">
                        <g id="play-button" transform="translate(0.000000, 2.000000)">
                            <path d="M18.8933056,5.4229723 C18.1929983,4.06475333 17.1717055,2.8653991 15.939995,1.95453836 C15.7592202,1.82090747 15.5044397,1.85909741 15.3707409,2.03980437 C15.2370422,2.22051132 15.2753,2.47535968 15.4560069,2.60905841 C16.5879352,3.4461169 17.5263361,4.54813086 18.1698673,5.79605348 C18.8441267,7.10366908 19.1860047,8.51805374 19.1860047,10.0000678 C19.1860047,15.0652214 15.0651535,19.1860725 10,19.1860725 C4.93484646,19.1860725 0.813995292,15.0652214 0.813995292,10 C0.813995292,4.93477863 4.93484646,0.813995292 10,0.813995292 C10.2247305,0.813995292 10.4069976,0.63172818 10.4069976,0.406997646 C10.4069976,0.182267113 10.2247305,0 10,0 C4.48599589,0 0,4.48599589 0,10 C0,15.5140041 4.48599589,20 10,20 C15.5140041,20 20,15.5140041 20,10 C20,8.40972453 19.6173544,6.82704635 18.8933056,5.4229723 Z" id="Shape"></path>
                            <path d="M7.31208452,5.21410172 C7.17899649,5.28597139 7.09677419,5.42014606 7.09677419,5.5654346 L7.09677419,14.4345691 C7.09677419,14.6577894 7.28739655,14.8387097 7.52242888,14.8387097 C7.75746121,14.8387097 7.94808357,14.6577894 7.94808357,14.4345691 L7.94808357,6.27638524 L14.250114,9.83841297 L9.61586957,12.6732571 C9.41829486,12.7941625 9.36125713,13.0442581 9.48859882,13.2318467 C9.61601146,13.4195027 9.87934982,13.4736575 10.0769955,13.3526848 L15.2887824,10.1644871 C15.4126479,10.0887107 15.4864281,9.95749973 15.4838032,9.81759973 C15.4811783,9.67769973 15.4025741,9.54904831 15.2759418,9.47744807 L7.74015125,5.21814312 C7.60848207,5.14384861 7.44517255,5.14223205 7.31208452,5.21410172 Z" id="Shape"></path>
                        </g>
                    </g>
                </g>
            </g>
        </g>
    </g>
</svg>