<?xml version="1.0" encoding="UTF-8"?>
<svg width="24px" height="22px" viewBox="0 0 24 22" version="1.1" xmlns="http://www.w3.org/2000/svg" xmlns:xlink="http://www.w3.org/1999/xlink">
    <!-- Generator: Sketch 48.2 (47327) - http://www.bohemiancoding.com/sketch -->
    <title>mortarboard</title>
    <desc>Created with Sketch.</desc>
    <defs></defs>
    <g id="tutoriels-hover" stroke="none" stroke-width="1" fill="none" fill-rule="evenodd" transform="translate(-284.000000, -579.000000)">
        <g id="tutorial" fill="#000000" fill-rule="nonzero">
            <g id="Group-7" transform="translate(85.000000, 113.000000)">
                <g id="visuels" transform="translate(0.000000, 150.000000)">
                    <g id="Group-3">
                        <g id="Group-2" transform="translate(80.000000, 154.000000)">
                            <g id="vidéo-about" transform="translate(0.000000, 159.000000)">
                                <g id="Group">
                                    <g id="mortarboard" transform="translate(119.000000, 3.000000)">
                                        <path d="M16.8638596,19.6521674 C16.6498713,19.5987322 16.4331228,19.7275565 16.3800234,19.9377071 L15.9808187,21.508682 C15.926924,21.719569 16.0574503,21.9324351 16.2714386,21.9850879 C16.3037661,21.9933264 16.3365146,21.9968703 16.3684678,21.9968703 C16.5473216,21.9968703 16.7098012,21.8778494 16.7553216,21.6995481 L17.1545263,20.1285732 C17.208,19.9180544 17.077848,19.7048201 16.8638596,19.6521674 Z" id="Shape"></path>
                                        <path d="M11.9766082,11.7854644 C12.0284912,11.7854644 12.0804211,11.7756611 12.1291228,11.7556402 L16.5205614,9.967841 C16.7241637,9.88494979 16.8207719,9.65519247 16.7365614,9.45489121 C16.6523041,9.25417573 16.4179649,9.15991632 16.2147836,9.2420251 L11.9766082,10.9677364 L0.79845614,6.41737238 L0.79845614,6.28698326 C0.79845614,6.07020502 0.619602339,5.89425105 0.399251462,5.89425105 C0.178900585,5.89425105 0,6.07020502 0,6.28698326 L0,6.67971548 C0,6.83877824 0.0974035088,6.98214644 0.246736842,7.04262343 L11.8241404,11.7555941 C11.8727953,11.7756151 11.9247251,11.7854644 11.9766082,11.7854644 Z" id="Shape"></path>
                                        <path d="M16.7257544,15.8091632 C16.6283509,15.6147531 16.389614,15.5346234 16.1912047,15.6308619 C15.433076,15.9996611 14.1667368,16.428523 12.3758596,16.4870669 L12.3758596,12.9637071 C12.3758596,12.7469289 12.1970058,12.5709749 11.976655,12.5709749 C11.7563041,12.5709749 11.5774503,12.7469289 11.5774503,12.9637071 L11.5774503,16.483523 C6.62035088,16.3280042 5.02067836,13.3737448 4.79069006,12.8820126 L4.79069006,10.2144895 C4.79069006,9.9977113 4.61183626,9.82175732 4.39148538,9.82175732 C4.1711345,9.82175732 3.9922807,9.9977113 3.9922807,10.2144895 L3.9922807,12.9637071 C3.9922807,13.0135983 4.00187135,13.0630753 4.02063158,13.1097908 C4.09010526,13.2798536 5.78919298,17.2838996 11.9767018,17.2838996 C14.1392749,17.2838996 15.6547368,16.7678201 16.5449825,16.335 C16.7428772,16.2388075 16.8239532,16.0035732 16.7257544,15.8091632 Z" id="Shape"></path>
                                        <path d="M17.9649123,20.0331632 C17.7441404,20.0331632 17.5657076,20.2091172 17.5657076,20.4258954 L17.5657076,21.6041381 C17.5657076,21.8209163 17.7441404,21.9968703 17.9649123,21.9968703 C18.1856842,21.9968703 18.364117,21.8209163 18.364117,21.6041381 L18.364117,20.4258954 C18.364117,20.2091172 18.1856842,20.0331632 17.9649123,20.0331632 Z" id="Shape"></path>
                                        <path d="M23.5540117,5.89425105 C23.3332398,5.89425105 23.154807,6.07020502 23.154807,6.28698326 L23.154807,6.41658996 L18.3641637,8.35636402 L18.3641637,7.6466569 L23.7065263,5.47160251 C23.8558129,5.41112552 23.9532632,5.26775732 23.9532632,5.10869456 C23.9532632,4.9496318 23.8558596,4.80667782 23.7069474,4.74578661 L12.1291228,0.0328619248 C12.0312982,-0.00681171541 11.9219181,-0.00681171541 11.8241404,0.0328619248 L0.246736842,4.74583264 C0.0974035088,4.80672385 0,4.94967782 0,5.10874059 C0,5.26780335 0.0974035088,5.41117155 0.246736842,5.47164854 L11.8241404,10.1846192 C11.8728421,10.2046402 11.9247251,10.2144895 11.976655,10.2144895 C12.0285848,10.2144895 12.0804678,10.2046862 12.1291696,10.1846192 L16.3154152,8.48049372 C16.5194386,8.39801674 16.6160468,8.16825941 16.5317895,7.96754393 C16.4475322,7.76724268 16.2139883,7.67256904 16.010386,7.75504603 L11.9766082,9.39676151 L1.44318129,5.10874059 L11.9766082,0.820719665 L22.5100351,5.10874059 L17.9265965,6.97469038 L13.5363743,5.36206276 C13.5595322,5.2803682 13.5735205,5.19632636 13.5735205,5.10874059 C13.5735205,4.44814226 12.8720936,3.93049791 11.976655,3.93049791 C11.0812164,3.93049791 10.3797895,4.44814226 10.3797895,5.10874059 C10.3797895,5.76933891 11.0812164,6.28698326 11.976655,6.28698326 C12.3762807,6.28698326 12.7327719,6.17974477 13.0098246,6.00696653 L17.5657076,7.68048536 L17.5657076,8.93885774 L17.5657076,8.93927197 L17.5657076,17.356251 C17.1022222,17.5192259 16.7672515,17.9508494 16.7672515,18.4622343 C16.7672515,19.1118326 17.3046082,19.640477 17.9649123,19.640477 C18.6252164,19.640477 19.1625731,19.1118326 19.1625731,18.4622343 C19.1625731,17.9508954 18.8276491,17.519272 18.364117,17.356251 L18.364117,15.1270251 C19.510269,14.2759289 19.921076,13.1424686 19.9390409,13.0922092 C19.9534035,13.0509707 19.9609825,13.0073849 19.9609825,12.9637992 L19.9609825,10.2145816 C19.9609825,9.99780335 19.7825497,9.82184937 19.5617778,9.82184937 C19.3410058,9.82184937 19.1625731,9.99780335 19.1625731,10.2145816 L19.1625731,12.8911715 C19.0935205,13.0576904 18.8535673,13.5710084 18.364117,14.0776527 L18.364117,9.2058954 L23.7061053,7.04303766 C23.8558129,6.98256067 23.9532164,6.83882427 23.9532164,6.67976151 L23.9532164,6.28702929 C23.9532164,6.07020502 23.7747836,5.89425105 23.5540117,5.89425105 Z M11.9766082,5.5014728 C11.4891696,5.5014728 11.178152,5.26895397 11.178152,5.10874059 C11.178152,4.94848117 11.4891228,4.71600837 11.9766082,4.71600837 C12.4640936,4.71600837 12.7750643,4.9485272 12.7750643,5.10874059 C12.7750643,5.269 12.4640468,5.5014728 11.9766082,5.5014728 Z M17.9649123,18.8549205 C17.7445614,18.8549205 17.5657076,18.6785983 17.5657076,18.4621883 C17.5657076,18.2457782 17.7445614,18.0694561 17.9649123,18.0694561 C18.1852632,18.0694561 18.364117,18.2457782 18.364117,18.4621883 C18.364117,18.6785523 18.1852632,18.8549205 17.9649123,18.8549205 Z" id="Shape"></path>
                                        <path d="M19.5498012,19.9377071 C19.4963275,19.7276025 19.2791111,19.5991464 19.0659649,19.6521674 C18.8519766,19.7047741 18.7218246,19.9180544 18.775345,20.1285732 L19.1745497,21.6995481 C19.2200702,21.8778494 19.3825497,21.9968703 19.5614035,21.9968703 C19.5933567,21.9968703 19.6260585,21.9933264 19.6584327,21.9850879 C19.8724211,21.9324812 20.0025731,21.719569 19.9490526,21.508682 L19.5498012,19.9377071 Z" id="Shape"></path>
                                    </g>
                                </g>
                            </g>
                        </g>
                    </g>
                </g>
            </g>
        </g>
    </g>
</svg>